<!--
 * @Author: 16651618507@163.com
 * @Date: 2024-07-08 10:21:36
 * @LastEditors: 16651618507@163.com
 * @LastEditTime: 2024-07-08 10:23:31
 * @FilePath: \new-plus\src\assets\svg\sprite.svg
 * @Description: 
 * 
-->
<svg xmlns="http://www.w3.org/2000/svg" xmlns:xlink="http://www.w3.org/1999/xlink">
  <defs>
    <symbol viewBox="0 0 24 24" id="mingcute-back-2-fill">
      <g fill="red">
        <path
          d="M24 0v24H0V0zM12.593 23.258l-.011.002l-.071.035l-.02.004l-.014-.004l-.071-.035c-.01-.004-.019-.001-.024.005l-.004.01l-.017.428l.005.02l.01.013l.104.074l.015.004l.012-.004l.104-.074l.012-.016l.004-.017l-.017-.427c-.002-.01-.009-.017-.017-.018m.265-.113l-.013.002l-.185.093l-.01.01l-.003.011l.018.43l.005.012l.008.007l.201.093c.012.004.023 0 .029-.008l.004-.014l-.034-.614c-.003-.012-.01-.02-.02-.022m-.715.002a.023.023 0 0 0-.027.006l-.006.014l-.034.614c0 .012.007.02.017.024l.015-.002l.201-.093l.01-.008l.004-.011l.017-.43l-.003-.012l-.01-.01z"
        ></path>
        <path
          fill="currentColor"
          d="M7.16 10.972A7 7 0 0 1 19.5 15.5a1.5 1.5 0 1 0 3 0c0-5.523-4.477-10-10-10a9.973 9.973 0 0 0-7.418 3.295L4.735 6.83a1.5 1.5 0 1 0-2.954.52l1.042 5.91c.069.391.29.74.617.968c.403.282.934.345 1.385.202l5.644-.996a1.5 1.5 0 1 0-.52-2.954l-2.788.491Z"
        ></path>
      </g>
    </symbol>
    <symbol viewBox="0 0 24 24" id="mingcute-back-fill">
      <g fill="red" fill-rule="evenodd">
        <path
          d="M24 0v24H0V0zM12.593 23.258l-.011.002l-.071.035l-.02.004l-.014-.004l-.071-.035c-.01-.004-.019-.001-.024.005l-.004.01l-.017.428l.005.02l.01.013l.104.074l.015.004l.012-.004l.104-.074l.012-.016l.004-.017l-.017-.427c-.002-.01-.009-.017-.017-.018m.265-.113l-.013.002l-.185.093l-.01.01l-.003.011l.018.43l.005.012l.008.007l.201.093c.012.004.023 0 .029-.008l.004-.014l-.034-.614c-.003-.012-.01-.02-.02-.022m-.715.002a.023.023 0 0 0-.027.006l-.006.014l-.034.614c0 .012.007.02.017.024l.015-.002l.201-.093l.01-.008l.004-.011l.017-.43l-.003-.012l-.01-.01z"
        ></path>
        <path
          fill="currentColor"
          d="M2.614 5.426A1.5 1.5 0 0 1 4 4.5h10a7.5 7.5 0 1 1 0 15H5a1.5 1.5 0 0 1 0-3h9a4.5 4.5 0 1 0 0-9H7.621l.94.94a1.5 1.5 0 0 1-2.122 2.12l-3.5-3.5a1.5 1.5 0 0 1-.325-1.634"
        ></path>
      </g>
    </symbol>
    <symbol viewBox="0 0 24 24" id="mingcute-binance-coin-bnb-line">
      <g fill="red" fill-rule="evenodd">
        <path
          d="M24 0v24H0V0zM12.593 23.258l-.011.002l-.071.035l-.02.004l-.014-.004l-.071-.035c-.01-.004-.019-.001-.024.005l-.004.01l-.017.428l.005.02l.01.013l.104.074l.015.004l.012-.004l.104-.074l.012-.016l.004-.017l-.017-.427c-.002-.01-.009-.017-.017-.018m.265-.113l-.013.002l-.185.093l-.01.01l-.003.011l.018.43l.005.012l.008.007l.201.093c.012.004.023 0 .029-.008l.004-.014l-.034-.614c-.003-.012-.01-.02-.02-.022m-.715.002a.023.023 0 0 0-.027.006l-.006.014l-.034.614c0 .012.007.02.017.024l.015-.002l.201-.093l.01-.008l.004-.011l.017-.43l-.003-.012l-.01-.01z"
        ></path>
        <path
          fill="currentColor"
          d="m9.175 13.415l2.828 2.829l2.829-2.828a1 1 0 0 1 1.414 0l1.768 1.767a1 1 0 0 1 0 1.415L12.71 21.9a1 1 0 0 1-1.414 0l-5.303-5.304a1 1 0 0 1 0-1.414l1.767-1.768a1 1 0 0 1 1.415 0Zm6.364 2.122l-2.829 2.828a1 1 0 0 1-1.414 0l-2.828-2.828l-.354.353l3.89 3.89l3.888-3.89zm4.593-6.013l1.768 1.768a1 1 0 0 1 0 1.414l-1.768 1.768a1 1 0 0 1-1.414 0l-1.768-1.768a1 1 0 0 1 0-1.414l1.768-1.768a1 1 0 0 1 1.414 0m-7.519-.083l.095.083l1.768 1.768a1 1 0 0 1 .083 1.32l-.083.094l-1.768 1.768a1 1 0 0 1-1.315.086l-.1-.086l-1.767-1.768a1 1 0 0 1-.083-1.32l.083-.094l1.768-1.768a1 1 0 0 1 1.32-.083ZM4.58 9.234a1 1 0 0 1 .608.206l.099.086l1.767 1.768a1 1 0 0 1 .084 1.32l-.084.094l-1.767 1.768a1 1 0 0 1-1.32.083l-.095-.083l-1.767-1.768a1 1 0 0 1-.084-1.32l.084-.094L3.87 9.526a1 1 0 0 1 .708-.292Zm0 2.414L4.225 12l.354.354l.353-.354l-.353-.353Zm14.846-.003l-.353.354l.353.353l.354-.353zm-7.424 0l-.354.354l.354.353l.353-.353zm.707-9.546l5.303 5.304a1 1 0 0 1 0 1.414l-1.768 1.768a1 1 0 0 1-1.414 0l-2.828-2.829l-2.829 2.829a1 1 0 0 1-1.414 0L5.99 8.817a1 1 0 0 1 0-1.414l5.304-5.304a1 1 0 0 1 1.414 0ZM12 4.221L8.11 8.11l.354.353l2.829-2.828a1 1 0 0 1 1.414 0l2.828 2.828l.354-.353L12 4.22Z"
        ></path>
      </g>
    </symbol>
    <symbol viewBox="0 0 24 24" id="mingcute-file-new-fill">
      <g fill="red" fill-rule="evenodd">
        <path
          d="M24 0v24H0V0zM12.593 23.258l-.011.002l-.071.035l-.02.004l-.014-.004l-.071-.035c-.01-.004-.019-.001-.024.005l-.004.01l-.017.428l.005.02l.01.013l.104.074l.015.004l.012-.004l.104-.074l.012-.016l.004-.017l-.017-.427c-.002-.01-.009-.017-.017-.018m.265-.113l-.013.002l-.185.093l-.01.01l-.003.011l.018.43l.005.012l.008.007l.201.093c.012.004.023 0 .029-.008l.004-.014l-.034-.614c-.003-.012-.01-.02-.02-.022m-.715.002a.023.023 0 0 0-.027.006l-.006.014l-.034.614c0 .012.007.02.017.024l.015-.002l.201-.093l.01-.008l.004-.011l.017-.43l-.003-.012l-.01-.01z"
        ></path>
        <path
          fill="currentColor"
          d="M12 2v6.5a1.5 1.5 0 0 0 1.356 1.493L13.5 10H20v10a2 2 0 0 1-1.85 1.995L18 22H6a2 2 0 0 1-1.995-1.85L4 20V4a2 2 0 0 1 1.85-1.995L6 2zm0 9.5a1 1 0 0 0-.993.883L11 12.5V14H9.5a1 1 0 0 0-.117 1.993L9.5 16H11v1.5a1 1 0 0 0 1.993.117L13 17.5V16h1.5a1 1 0 0 0 .117-1.993L14.5 14H13v-1.5a1 1 0 0 0-1-1m2-9.457a2 2 0 0 1 .877.43l.123.113L19.414 7a2 2 0 0 1 .502.84l.04.16H14z"
        ></path>
      </g>
    </symbol>
    <symbol viewBox="0 0 24 24" id="mingcute-forward-2-fill">
      <g fill="red">
        <path
          d="M24 0v24H0V0zM12.593 23.258l-.011.002l-.071.035l-.02.004l-.014-.004l-.071-.035c-.01-.004-.019-.001-.024.005l-.004.01l-.017.428l.005.02l.01.013l.104.074l.015.004l.012-.004l.104-.074l.012-.016l.004-.017l-.017-.427c-.002-.01-.009-.017-.017-.018m.265-.113l-.013.002l-.185.093l-.01.01l-.003.011l.018.43l.005.012l.008.007l.201.093c.012.004.023 0 .029-.008l.004-.014l-.034-.614c-.003-.012-.01-.02-.02-.022m-.715.002a.023.023 0 0 0-.027.006l-.006.014l-.034.614c0 .012.007.02.017.024l.015-.002l.201-.093l.01-.008l.004-.011l.017-.43l-.003-.012l-.01-.01z"
        ></path>
        <path
          fill="currentColor"
          d="M16.84 10.972A7 7 0 0 0 4.5 15.5a1.5 1.5 0 0 1-3 0c0-5.523 4.477-10 10-10a9.972 9.972 0 0 1 7.418 3.295l.347-1.964a1.5 1.5 0 1 1 2.954.52l-1.042 5.91a1.5 1.5 0 0 1-.617.968a1.607 1.607 0 0 1-1.385.202l-5.644-.996a1.5 1.5 0 1 1 .52-2.954l2.788.491Z"
        ></path>
      </g>
    </symbol>
    <symbol viewBox="0 0 24 24" id="mingcute-forward-fill">
      <g fill="red" fill-rule="evenodd">
        <path
          d="M24 0v24H0V0zM12.593 23.258l-.011.002l-.071.035l-.02.004l-.014-.004l-.071-.035c-.01-.004-.019-.001-.024.005l-.004.01l-.017.428l.005.02l.01.013l.104.074l.015.004l.012-.004l.104-.074l.012-.016l.004-.017l-.017-.427c-.002-.01-.009-.017-.017-.018m.265-.113l-.013.002l-.185.093l-.01.01l-.003.011l.018.43l.005.012l.008.007l.201.093c.012.004.023 0 .029-.008l.004-.014l-.034-.614c-.003-.012-.01-.02-.02-.022m-.715.002a.023.023 0 0 0-.027.006l-.006.014l-.034.614c0 .012.007.02.017.024l.015-.002l.201-.093l.01-.008l.004-.011l.017-.43l-.003-.012l-.01-.01z"
        ></path>
        <path
          fill="currentColor"
          d="M21.386 5.426A1.5 1.5 0 0 0 20 4.5H10a7.5 7.5 0 1 0 0 15h9a1.5 1.5 0 0 0 0-3h-9a4.5 4.5 0 1 1 0-9h6.379l-.94.94a1.5 1.5 0 0 0 2.122 2.12l3.5-3.5a1.5 1.5 0 0 0 .325-1.634"
        ></path>
      </g>
    </symbol>
  </defs>
</svg>
